<svg id="Layer_1" data-name="Layer 1" xmlns="http://www.w3.org/2000/svg" viewBox="0 0 113 24"><title>Artboard 1_48px</title><path d="M46.786,4.8V19.2h-2.5V7.913h-.04L39.776,19.2H38.119L33.54,7.913h-.03V19.2H31.2V4.8h3.585l4.138,10.674h.06L43.351,4.8Zm2.091,1.094a1.321,1.321,0,0,1,.437-1.009,1.472,1.472,0,0,1,1.039-.407,1.451,1.451,0,0,1,1.064.417,1.352,1.352,0,0,1,.422,1,1.3,1.3,0,0,1-.431.994,1.494,1.494,0,0,1-1.055.4A1.462,1.462,0,0,1,49.3,6.883,1.314,1.314,0,0,1,48.877,5.894Zm2.681,2.983V19.2h-2.43V8.877Zm7.371,8.556a3.362,3.362,0,0,0,1.2-.251,5.061,5.061,0,0,0,1.2-.663v2.259a4.842,4.842,0,0,1-1.32.5,7.19,7.19,0,0,1-1.622.171,4.911,4.911,0,0,1-5.132-5.121,5.891,5.891,0,0,1,1.456-4.1,5.28,5.28,0,0,1,4.128-1.611,5.652,5.652,0,0,1,1.381.175,4.637,4.637,0,0,1,1.109.407v2.33a4.96,4.96,0,0,0-1.15-.638,3.329,3.329,0,0,0-1.2-.226,3.044,3.044,0,0,0-2.319.934,3.515,3.515,0,0,0-.884,2.521,3.354,3.354,0,0,0,.848,2.44A3.067,3.067,0,0,0,58.929,17.433Zm9.319-8.727a3.044,3.044,0,0,1,.522.04,2.152,2.152,0,0,1,.392.1v2.46a2.116,2.116,0,0,0-.557-.266,2.756,2.756,0,0,0-.889-.126,1.885,1.885,0,0,0-1.511.753,3.617,3.617,0,0,0-.618,2.32V19.2h-2.43V8.877h2.43V10.5h.04a2.852,2.852,0,0,1,1-1.32A2.725,2.725,0,0,1,68.248,8.706Zm1.046,5.483a5.588,5.588,0,0,1,1.446-4.057,5.322,5.322,0,0,1,4.016-1.5,4.947,4.947,0,0,1,3.781,1.441A5.434,5.434,0,0,1,79.9,13.968a5.487,5.487,0,0,1-1.446,4,5.238,5.238,0,0,1-3.937,1.486,5.145,5.145,0,0,1-3.81-1.411A5.2,5.2,0,0,1,69.294,14.189Zm2.53-.08a3.686,3.686,0,0,0,.733,2.47,2.616,2.616,0,0,0,2.1.854,2.446,2.446,0,0,0,2.018-.854,3.948,3.948,0,0,0,.693-2.531,3.807,3.807,0,0,0-.718-2.515,2.491,2.491,0,0,0-2.013-.849,2.544,2.544,0,0,0-2.074.889A3.869,3.869,0,0,0,71.824,14.109Zm11.689-2.521a1.044,1.044,0,0,0,.332.819,5.685,5.685,0,0,0,1.466.748,4.967,4.967,0,0,1,2.043,1.31,2.717,2.717,0,0,1,.588,1.762,2.835,2.835,0,0,1-1.12,2.34,4.754,4.754,0,0,1-3.028.884,7.286,7.286,0,0,1-1.421-.156,6.316,6.316,0,0,1-1.32-.4v-2.39a6,6,0,0,0,1.426.733,4.171,4.171,0,0,0,1.385.271,2.472,2.472,0,0,0,1.216-.231.826.826,0,0,0,.391-.773,1.074,1.074,0,0,0-.406-.849,6.016,6.016,0,0,0-1.542-.8A4.769,4.769,0,0,1,81.615,13.6a2.773,2.773,0,0,1-.562-1.788,2.827,2.827,0,0,1,1.109-2.295,4.43,4.43,0,0,1,2.878-.9,6.991,6.991,0,0,1,1.215.12,5.344,5.344,0,0,1,1.124.311v2.31a5.184,5.184,0,0,0-1.124-.552,3.756,3.756,0,0,0-1.276-.231,1.853,1.853,0,0,0-1.079.271A.859.859,0,0,0,83.513,11.588Zm5.473,2.6a5.592,5.592,0,0,1,1.446-4.057,5.323,5.323,0,0,1,4.017-1.5,4.95,4.95,0,0,1,3.781,1.441,5.438,5.438,0,0,1,1.36,3.891,5.487,5.487,0,0,1-1.446,4,5.237,5.237,0,0,1-3.936,1.486A5.146,5.146,0,0,1,90.4,18.04,5.2,5.2,0,0,1,88.986,14.189Zm2.53-.08a3.686,3.686,0,0,0,.734,2.47,2.614,2.614,0,0,0,2.1.854,2.449,2.449,0,0,0,2.019-.854,3.948,3.948,0,0,0,.693-2.531,3.812,3.812,0,0,0-.718-2.515,2.494,2.494,0,0,0-2.014-.849,2.547,2.547,0,0,0-2.074.889A3.869,3.869,0,0,0,91.516,14.109Zm16.137-3.244h-3.62V19.2h-2.46V10.865H99.846V8.877h1.727V7.441a3.571,3.571,0,0,1,1.059-2.666,3.718,3.718,0,0,1,2.717-1.04,6.061,6.061,0,0,1,.783.045,3.094,3.094,0,0,1,.6.136v2.1a2.511,2.511,0,0,0-.422-.171,2.189,2.189,0,0,0-.693-.1,1.469,1.469,0,0,0-1.175.478,2.1,2.1,0,0,0-.412,1.41V8.877h3.62V6.557l2.44-.743V8.877h2.46v1.988h-2.46V15.7a2.038,2.038,0,0,0,.346,1.346,1.384,1.384,0,0,0,1.09.392,1.621,1.621,0,0,0,.507-.1,2.36,2.36,0,0,0,.517-.241V19.1a2.861,2.861,0,0,1-.768.241,5.292,5.292,0,0,1-1.059.11,3.016,3.016,0,0,1-2.3-.818,3.49,3.49,0,0,1-.768-2.466Z" style="fill:#737373"/><rect width="11.407" height="11.407" style="fill:#f25022"/><rect x="12.593" width="11.407" height="11.407" style="fill:#7fba00"/><rect y="12.593" width="11.407" height="11.407" style="fill:#00a4ef"/><rect x="12.593" y="12.593" width="11.407" height="11.407" style="fill:#ffb900"/></svg>